<?xml version="1.0" encoding="utf-8"?>
<svg viewBox="-126.214 -424.278 1900.39 453.3972" xmlns="http://www.w3.org/2000/svg">
  <path style="opacity: 1;" fill="#fbfbfb" d="M 1368.709 -424.039 C 1418.545 -426.932 1443.493 -403.563 1443.55 -353.935 C 1432.112 -317.1 1407.164 -300.997 1368.709 -305.62 C 1333.613 -319.264 1319.403 -344.842 1326.078 -382.356 C 1333.814 -403.04 1348.025 -416.936 1368.709 -424.039 Z"/>
  <path style="opacity: 1;" fill="#fdfdfd" d="M -126.214 -401.303 C -61.792 -401.619 2.628 -401.303 67.046 -400.355 C 180.518 -388.551 231.359 -325.711 219.57 -211.832 C 214.79 -170.829 196.159 -137.986 163.676 -113.307 C 130.233 -144.54 97.075 -176.119 64.204 -208.043 C 114.512 -132.383 166.617 -57.542 220.517 16.48 C 219.886 17.111 219.253 17.744 218.622 18.375 C 103.678 19.322 -11.268 19.639 -126.214 19.322 C -126.214 -120.886 -126.214 -261.094 -126.214 -401.303 Z"/>
  <path style="opacity: 1;" fill="#fdfdfd" d="M 252.727 -75.413 C 247.979 -93.727 247.615 -135.532 250.832 -170.149 C 257.167 -238.309 293.28 -277.828 360.725 -288.568 C 402.102 -293.35 441.258 -286.402 478.197 -267.726 C 507.44 -244.942 524.178 -214.943 528.407 -177.727 C 530.565 -140.938 529.301 -104.306 524.618 -67.834 C 512.452 -13.536 478.663 17.727 423.251 25.954 C 374.837 34.59 330.626 25.116 290.621 -2.467 C 270.145 -22.898 259.906 -47.724 252.727 -75.413 Z"/>
  <path style="opacity: 1;" fill="#fdfdfd" d="M 673.352 -289.515 C 711.316 -292.596 747.316 -285.964 781.35 -269.621 C 808.744 -251.181 825.482 -225.603 831.56 -192.885 C 834.561 -158.221 835.194 -123.486 833.455 -88.676 C 828.11 -23.328 793.058 14.881 728.298 25.954 C 681.475 34.527 638.527 25.685 599.458 -0.572 C 578.414 -18.968 565.467 -42.019 560.617 -69.729 C 557.652 -108.197 557.019 -146.722 558.722 -185.306 C 571.301 -248.546 609.512 -283.281 673.352 -289.515 Z"/>
  <path style="opacity: 1;" fill="#fcfcfc" d="M 1281.553 -217.516 C 1282.536 -215.303 1284.872 -213.494 1285.342 -204.253 C 1287.496 -130.396 1287.811 -56.502 1286.289 17.427 C 1248.395 19.953 1210.501 19.953 1172.607 17.427 C 1171.976 -48.256 1171.343 -113.938 1170.712 -179.622 C 1164.285 -190.928 1155.126 -193.77 1143.239 -188.148 C 1140.801 -185.477 1138.589 -182.635 1136.608 -179.622 C 1135.66 -113.311 1135.344 -46.996 1135.66 19.322 C 1097.082 20.563 1059.188 19.299 1021.978 15.533 C 1024.183 -46.672 1024.5 -109.198 1022.925 -172.043 C 1022.486 -174.387 1021.538 -176.282 1020.083 -177.727 C 1014.014 -191.047 1004.541 -194.206 991.663 -187.201 C 989.084 -184.306 986.873 -181.147 985.031 -177.727 C 984.084 -112.047 983.767 -46.364 984.084 19.322 C 946.362 19.94 908.782 19.309 871.349 17.427 C 869.772 -82.048 870.089 -181.204 872.296 -280.041 C 900.789 -281.273 928.578 -280.009 955.663 -276.252 C 940.907 -247.526 932.696 -217.211 931.032 -185.306 C 932.5 -189.745 933.764 -194.168 934.821 -198.569 C 939.009 -213.704 934.888 -198.601 938.611 -211.832 C 943.791 -236.895 955.79 -258.053 974.61 -275.305 C 999.588 -291.368 1026.114 -293.894 1054.188 -282.884 C 1066.312 -275.818 1077.366 -267.292 1087.345 -257.305 C 1130.535 -291.16 1178.219 -299.055 1230.396 -280.989 C 1257.545 -268.105 1274.597 -246.947 1281.553 -217.516 Z"/>
  <path style="opacity: 1;" fill="#fdfdfd" d="M 1327.026 -281.936 C 1364.92 -281.936 1402.814 -281.936 1440.708 -281.936 C 1441.024 -182.146 1440.708 -82.359 1439.761 17.427 C 1402.327 19.309 1364.747 19.94 1327.026 19.322 C 1327.026 -81.097 1327.026 -181.517 1327.026 -281.936 Z"/>
  <path style="opacity: 1;" fill="#fdfdfd" d="M 1582.811 17.427 C 1543.325 18.055 1504.167 17.422 1465.339 15.533 C 1495.819 -34.698 1526.765 -84.593 1558.18 -134.149 C 1529.454 -182.763 1499.77 -230.764 1469.128 -278.147 C 1507.957 -280.036 1547.115 -280.669 1586.6 -280.041 C 1597.171 -263.44 1608.223 -247.019 1619.758 -230.779 C 1630.652 -246.88 1641.073 -263.3 1651.02 -280.041 C 1690.809 -282.567 1730.598 -282.567 1770.387 -280.041 C 1740.45 -231.474 1710.131 -183.159 1679.441 -135.096 C 1712.284 -84.225 1743.861 -32.752 1774.176 19.322 C 1735.013 19.639 1695.857 19.322 1656.704 18.375 C 1644.753 -0.819 1632.121 -19.449 1618.81 -37.519 C 1606.32 -19.474 1594.319 -1.158 1582.811 17.427 Z"/>
  <path style="opacity: 1;" fill="#18181b" d="M 377.778 -190.99 C 386.774 -191.417 395.616 -190.469 404.304 -188.148 C 409.671 -185.306 413.777 -181.2 416.619 -175.833 C 417.883 -146.148 417.883 -116.466 416.619 -86.781 C 414.022 -77.88 408.023 -73.143 398.62 -72.571 C 389.606 -71.036 380.764 -71.669 372.094 -74.466 C 367.717 -77.567 364.875 -81.673 363.568 -86.781 C 362.304 -117.728 362.304 -148.676 363.568 -179.622 C 367.573 -184.588 372.31 -188.377 377.778 -190.99 Z"/>
  <path style="opacity: 1;" d="M 684.72 -190.99 C 693.716 -191.417 702.559 -190.469 711.246 -188.148 C 715.983 -185.937 719.456 -182.464 721.667 -177.727 C 722.931 -146.781 722.931 -115.833 721.667 -84.887 C 705.111 -114.497 653.181 -238.284 705.562 -72.571 C 693.39 -69.932 682.339 -72.141 672.405 -79.203 C 671.141 -81.728 669.879 -84.256 668.615 -86.781 C 667.351 -116.466 667.351 -146.148 668.615 -175.833 C 672.545 -182.61 677.912 -187.663 684.72 -190.99 Z" fill="#18181b"/>
</svg>
